<svg width="124" height="25" viewBox="0 0 124 25" fill="none" xmlns="http://www.w3.org/2000/svg">
<path d="M0 0.800049H7.39459C10.0324 0.800049 12.0757 1.37302 13.5243 2.51897C14.973 3.64329 15.6973 5.28654 15.6973 7.4487C15.6973 9.48113 14.8432 11.0055 13.1351 12.0217C14.2378 12.519 15.0811 13.2217 15.6649 14.1298C16.2486 15.0379 16.5405 16.1406 16.5405 17.4379C16.5405 19.7946 15.773 21.5568 14.2378 22.7244C12.7243 23.8919 10.6486 24.4757 8.01081 24.4757H0V0.800049ZM4.50811 14.4217V20.3244H8.01081C9.32973 20.3244 10.3243 20.0757 10.9946 19.5784C11.6649 19.0595 12 18.3136 12 17.3406C12 16.8649 11.9351 16.4433 11.8054 16.0757C11.6757 15.7082 11.4486 15.4055 11.1243 15.1676C10.8 14.9298 10.3676 14.746 9.82703 14.6163C9.28649 14.4865 8.60541 14.4217 7.78378 14.4217H4.50811ZM4.50811 4.9514V10.2055H7.39459C8.8 10.2055 9.77297 9.95681 10.3135 9.45951C10.8757 8.94059 11.1568 8.27032 11.1568 7.4487C11.1568 6.58383 10.8649 5.95681 10.2811 5.56762C9.71892 5.15681 8.76757 4.9514 7.42703 4.9514H4.50811Z" fill="white"/>
<path d="M18.3345 8.25951H22.7453V10.919C23.1561 10.0757 23.7291 9.42708 24.4642 8.97302C25.1993 8.49735 26.1182 8.25951 27.2209 8.25951H29.0047V12.573H26.1831C24.9939 12.573 24.1291 12.9082 23.5885 13.5784C23.048 14.2271 22.7777 15.3082 22.7777 16.8217V24.4757H18.3345V8.25951Z" fill="white"/>
<path d="M37.5096 24.8C36.6448 24.8 35.7475 24.6271 34.8177 24.2811C33.9096 23.9352 33.0664 23.4163 32.288 22.7244C31.5313 22.0325 30.9042 21.1568 30.4069 20.0973C29.9313 19.0379 29.6934 17.7946 29.6934 16.3676C29.6934 14.9406 29.9313 13.6973 30.4069 12.6379C30.8826 11.5784 31.4988 10.7028 32.2556 10.0109C33.0123 9.29735 33.8556 8.77843 34.7853 8.4541C35.7367 8.10816 36.6664 7.93518 37.5745 7.93518C38.634 7.93518 39.5637 8.11897 40.3637 8.48654C41.1853 8.83248 41.8664 9.28654 42.4069 9.8487V8.25951H46.8502V24.4757H42.4069V22.6595C41.8664 23.2865 41.1745 23.8055 40.3312 24.2163C39.5096 24.6055 38.5691 24.8 37.5096 24.8ZM38.3853 20.7136C38.9907 20.7136 39.5421 20.6055 40.0394 20.3892C40.5583 20.1514 41.0015 19.8379 41.3691 19.4487C41.7367 19.0379 42.0177 18.573 42.2123 18.0541C42.4285 17.5136 42.5367 16.9406 42.5367 16.3352C42.5367 15.7298 42.4285 15.1676 42.2123 14.6487C42.0177 14.1082 41.7367 13.6433 41.3691 13.2541C41.0015 12.8649 40.5583 12.5622 40.0394 12.346C39.5421 12.1082 38.9907 11.9892 38.3853 11.9892C37.7583 11.9892 37.1745 12.0973 36.634 12.3136C36.115 12.5298 35.661 12.8325 35.2718 13.2217C34.8826 13.6109 34.5799 14.0757 34.3637 14.6163C34.1475 15.1352 34.0394 15.7082 34.0394 16.3352C34.0394 16.9622 34.1475 17.546 34.3637 18.0865C34.5799 18.6055 34.8826 19.0595 35.2718 19.4487C35.661 19.8379 36.115 20.1514 36.634 20.3892C37.1745 20.6055 37.7583 20.7136 38.3853 20.7136Z" fill="white"/>
<path d="M57.001 24.8C55.8118 24.8 54.6983 24.5946 53.6605 24.1838C52.6443 23.773 51.7578 23.2001 51.001 22.4649C50.2659 21.7082 49.6821 20.8109 49.2497 19.773C48.8389 18.7352 48.6334 17.6 48.6334 16.3676C48.6334 15.2 48.8497 14.1082 49.2821 13.0919C49.7145 12.0541 50.3091 11.1568 51.0659 10.4C51.8443 9.64329 52.7416 9.0487 53.7578 8.61626C54.774 8.16221 55.8659 7.93518 57.0334 7.93518C58.1578 7.93518 59.2064 8.11897 60.1794 8.48654C61.1524 8.8541 62.0064 9.36221 62.7416 10.0109C63.4983 10.6595 64.1037 11.4379 64.5578 12.346C65.0334 13.2541 65.3145 14.2487 65.401 15.3298H60.9578C60.7848 14.3568 60.3416 13.5892 59.628 13.0271C58.9361 12.4433 58.0713 12.1514 57.0334 12.1514C56.4497 12.1514 55.8983 12.2595 55.3794 12.4757C54.8821 12.6919 54.4497 12.9946 54.0821 13.3838C53.7145 13.773 53.4226 14.2271 53.2064 14.746C52.9902 15.2433 52.8821 15.7838 52.8821 16.3676C52.8821 17.6433 53.2605 18.6703 54.0172 19.4487C54.774 20.2055 55.7902 20.5838 57.0659 20.5838C58.1037 20.5838 58.9686 20.2919 59.6605 19.7082C60.3524 19.1028 60.7848 18.3136 60.9578 17.3406H65.401C65.3145 18.4433 65.0334 19.4487 64.5578 20.3568C64.0821 21.2649 63.4659 22.0541 62.7091 22.7244C61.974 23.373 61.1091 23.8811 60.1145 24.2487C59.1416 24.6163 58.1037 24.8 57.001 24.8Z" fill="white"/>
<path d="M73.6627 17.9892L71.4897 20.5514V24.4757H67.0465V0.800049H71.4897V15.4271L77.4573 8.25951H82.614L76.7113 15.2649L82.9383 24.4757H78.0735L73.6627 17.9892Z" fill="white"/>
<path d="M90.3836 24.8C89.1079 24.8 87.9512 24.5838 86.9133 24.1514C85.8971 23.6973 85.0215 23.0919 84.2863 22.3352C83.5512 21.5784 82.989 20.6919 82.5998 19.6757C82.2106 18.6379 82.016 17.5352 82.016 16.3676C82.016 15.2 82.2323 14.1082 82.6647 13.0919C83.0971 12.0541 83.6917 11.1568 84.4485 10.4C85.2269 9.64329 86.1242 9.0487 87.1404 8.61626C88.1566 8.16221 89.2485 7.93518 90.416 7.93518C91.6269 7.93518 92.7404 8.16221 93.7566 8.61626C94.7944 9.0487 95.6809 9.6541 96.416 10.4325C97.1728 11.2109 97.7566 12.119 98.1674 13.1568C98.5998 14.173 98.816 15.2649 98.816 16.4325V17.8595H86.2647C86.5025 18.8109 86.9674 19.5784 87.6593 20.1622C88.3728 20.7244 89.2917 21.0055 90.416 21.0055C91.3242 21.0055 92.0485 20.8325 92.589 20.4865C93.1296 20.1406 93.5404 19.6649 93.8215 19.0595H98.5566C97.9079 20.8541 96.9025 22.2595 95.5404 23.2757C94.1998 24.2919 92.4809 24.8 90.3836 24.8ZM90.4485 11.8595C89.5404 11.8595 88.7512 12.0865 88.0809 12.5406C87.4323 12.973 86.9242 13.546 86.5566 14.2595H94.2106C93.9079 13.4595 93.4215 12.8649 92.7512 12.4757C92.0809 12.0649 91.3133 11.8595 90.4485 11.8595Z" fill="white"/>
<path d="M99.3763 8.25951H102.133V4.46491L106.576 2.03248V8.25951H109.625V12.2487H106.576V17.4055C106.576 18.0325 106.609 18.5406 106.674 18.9298C106.738 19.319 106.868 19.6217 107.063 19.8379C107.279 20.0325 107.582 20.1622 107.971 20.2271C108.382 20.2919 108.933 20.3244 109.625 20.3244V24.4757H108.976C107.679 24.4757 106.598 24.3568 105.733 24.119C104.868 23.8811 104.165 23.4919 103.625 22.9514C103.084 22.3892 102.695 21.6649 102.457 20.7784C102.241 19.8703 102.133 18.7568 102.133 17.4379V12.2487H99.3763V8.25951Z" fill="white"/>
<path d="M117.732 24.8C113.43 24.8 111.278 22.8649 111.278 18.9946H115.754V19.1244C115.754 19.7946 115.948 20.2703 116.338 20.5514C116.727 20.8109 117.192 20.9406 117.732 20.9406C118.359 20.9406 118.803 20.8217 119.062 20.5838C119.343 20.3244 119.484 19.9676 119.484 19.5136C119.484 19.2541 119.365 19.0487 119.127 18.8973C118.911 18.746 118.608 18.6055 118.219 18.4757C117.851 18.346 117.43 18.2271 116.954 18.119C116.478 17.9892 115.992 17.8379 115.494 17.6649C114.997 17.5136 114.511 17.319 114.035 17.0811C113.559 16.8217 113.127 16.5082 112.738 16.1406C112.37 15.773 112.067 15.3298 111.83 14.8109C111.613 14.2703 111.505 13.6217 111.505 12.8649C111.505 12.1514 111.635 11.5028 111.894 10.919C112.176 10.3136 112.565 9.79464 113.062 9.36221C113.581 8.90816 114.208 8.56221 114.943 8.32437C115.678 8.06491 116.511 7.93518 117.44 7.93518C118.348 7.93518 119.192 8.0541 119.97 8.29194C120.748 8.50816 121.408 8.8541 121.948 9.32978C122.511 9.78383 122.943 10.3568 123.246 11.0487C123.57 11.7406 123.732 12.5514 123.732 13.4811H119.419V13.4163C119.419 12.7244 119.246 12.2487 118.9 11.9892C118.576 11.7298 118.132 11.6 117.57 11.6C117.008 11.6 116.597 11.7298 116.338 11.9892C116.078 12.2487 115.948 12.5514 115.948 12.8973C115.948 13.1352 116.057 13.3298 116.273 13.4811C116.511 13.6325 116.813 13.773 117.181 13.9028C117.548 14.0109 117.959 14.1298 118.413 14.2595C118.889 14.3676 119.376 14.5082 119.873 14.6811C120.348 14.8541 120.824 15.0595 121.3 15.2973C121.775 15.5352 122.186 15.8487 122.532 16.2379C122.9 16.6055 123.192 17.0487 123.408 17.5676C123.646 18.0865 123.765 18.7136 123.765 19.4487C123.765 20.1622 123.635 20.8433 123.376 21.4919C123.116 22.119 122.738 22.6811 122.24 23.1784C121.743 23.6757 121.116 24.0757 120.359 24.3784C119.603 24.6595 118.727 24.8 117.732 24.8Z" fill="white"/>
</svg>
